<?xml version="1.0" standalone="no"?>
<!DOCTYPE svg PUBLIC "-//W3C//DTD SVG 20010904//EN"
 "http://www.w3.org/TR/2001/REC-SVG-20010904/DTD/svg10.dtd">
<svg version="1.0" xmlns="http://www.w3.org/2000/svg"
 width="553.000000pt" height="545.000000pt" viewBox="0 0 553.000000 545.000000"
 preserveAspectRatio="xMidYMid meet">

<g transform="translate(0.000000,545.000000) scale(0.100000,-0.100000)"
fill="#000000" stroke="none">
<path d="M2274 3629 c-4 -7 -9 -42 -12 -80 -4 -54 -1 -74 13 -95 17 -26 16
-26 -7 -19 -12 4 -28 11 -33 16 -19 14 -258 101 -311 112 -57 12 -89 5 -80
-18 3 -8 31 -55 62 -103 102 -155 155 -288 203 -512 30 -133 43 -157 110 -187
78 -35 201 -94 201 -96 0 -1 -64 -2 -143 -3 -151 0 -200 -11 -356 -80 -104
-46 -114 -45 -340 42 -111 43 -198 81 -193 86 10 10 89 40 197 75 71 23 97 26
230 27 113 0 169 -4 228 -18 80 -19 104 -15 92 16 -10 24 -112 66 -193 78
-133 21 -322 -16 -514 -101 -51 -22 -101 -43 -110 -46 -28 -9 -22 -24 38 -88
62 -66 89 -103 82 -110 -3 -3 -54 -17 -114 -31 -153 -36 -158 -38 -150 -75 3
-16 21 -64 41 -106 32 -69 33 -73 11 -50 -32 35 -70 35 -93 1 -12 -19 -18 -58
-23 -152 -7 -138 -22 -182 -64 -182 -29 0 -90 59 -170 163 -156 203 -233 239
-398 187 -85 -27 -160 -34 -237 -21 -70 11 -83 8 -60 -14 9 -9 45 -17 99 -21
72 -5 100 -2 183 20 128 34 171 34 228 -2 40 -26 121 -110 158 -165 34 -51
125 -149 152 -162 34 -18 68 -19 90 -2 33 25 43 63 47 177 4 111 19 170 42
170 11 0 70 -88 70 -104 0 -13 85 -228 108 -274 9 -19 30 -45 47 -59 26 -22
36 -25 85 -20 51 5 222 59 530 170 69 25 232 83 362 129 l237 85 97 -100 97
-100 51 6 c28 3 73 15 99 27 148 66 312 92 702 112 276 14 270 11 300 113 39
134 88 195 157 195 73 0 92 -19 169 -170 88 -172 166 -214 287 -154 77 38 123
99 208 273 42 86 87 171 101 189 67 89 172 111 271 57 50 -27 118 -91 174
-165 19 -26 29 -32 38 -24 26 25 -134 196 -218 231 -46 19 -162 18 -201 -1
-69 -36 -112 -96 -190 -266 -91 -197 -165 -279 -262 -288 -49 -5 -51 -4 -97
44 -26 27 -67 87 -91 134 -74 143 -104 170 -189 170 -82 0 -147 -74 -186 -212
-22 -76 -36 -88 -99 -87 -48 1 -49 2 -17 8 47 9 60 18 60 42 0 15 -7 19 -30
19 -28 0 -30 2 -20 20 8 15 6 30 -9 64 -11 24 -26 66 -32 92 -29 126 -32 132
-79 139 -3 0 -45 24 -93 53 -169 100 -205 115 -279 116 -38 1 -68 2 -68 2 0 1
68 60 151 130 181 154 179 152 179 169 0 20 -83 85 -108 85 -25 0 -46 -19
-143 -129 -41 -47 -138 -150 -215 -230 -78 -80 -174 -180 -214 -221 l-72 -75
87 110 c48 61 100 121 114 135 56 54 332 411 384 497 15 24 -7 41 -78 58 -70
18 -74 18 -100 1 -37 -24 -90 -111 -196 -321 -90 -176 -218 -399 -226 -392 -2
2 7 35 20 73 75 217 112 361 138 534 25 163 25 252 2 272 -21 18 -95 44 -238
83 -55 15 -174 52 -265 81 -170 56 -204 62 -216 43z m184 -64 c73 -25 196 -63
273 -85 78 -23 166 -50 196 -62 l56 -21 -7 -106 c-11 -176 -56 -377 -146 -650
-55 -168 -57 -181 -35 -181 11 0 8 -9 -10 -36 -29 -42 -31 -61 -10 -66 12 -2
10 -9 -9 -33 l-24 -30 5 207 c4 142 2 231 -7 285 -16 100 -96 318 -189 515
l-32 66 -92 37 c-115 46 -137 65 -137 119 0 53 9 86 24 86 6 0 71 -20 144 -45z
m-407 -75 c78 -27 147 -54 153 -59 6 -4 29 -14 51 -21 87 -28 174 -79 198
-118 99 -158 152 -303 186 -512 25 -155 36 -342 18 -293 -7 17 -21 43 -32 56
-22 28 -172 125 -238 155 -135 61 -189 88 -202 102 -8 9 -34 95 -59 191 -60
239 -105 342 -218 507 -21 31 -25 42 -14 42 8 0 79 -22 157 -50z m424 -139
c21 -12 39 -39 59 -87 16 -38 40 -91 52 -119 36 -80 80 -194 104 -270 19 -60
23 -98 27 -260 3 -106 0 -208 -5 -230 -10 -38 -10 -37 -11 31 -2 124 -21 324
-42 431 -34 178 -124 399 -197 484 -37 43 -33 49 13 20z m860 -122 c69 -18 67
-16 48 -46 -65 -102 -339 -455 -361 -465 -4 -1 -16 -15 -27 -29 -42 -55 -105
-131 -105 -126 0 3 22 42 49 85 27 44 95 170 151 279 107 206 126 240 168 286
29 31 25 30 77 16z m200 -179 l29 -30 -31 -27 c-53 -47 -244 -206 -285 -238
-65 -50 -238 -198 -282 -241 -12 -11 -30 -26 -41 -34 -21 -15 99 113 249 265
49 49 138 145 199 213 60 67 114 122 121 122 7 0 25 -13 41 -30z m-1530 -224
l40 -15 -55 6 c-30 3 -62 7 -70 9 -8 1 -55 3 -105 5 -78 2 -84 3 -45 10 64 10
188 3 235 -15z m-292 -3 c-7 -2 -19 -2 -25 0 -7 3 -2 5 12 5 14 0 19 -2 13 -5z
m1495 -152 c-169 -154 -384 -341 -393 -341 -5 0 -5 4 1 8 7 4 52 44 100 89
146 134 328 292 337 293 5 0 -15 -22 -45 -49z m269 -22 c65 -33 129 -68 142
-78 23 -18 23 -18 -75 -40 -249 -56 -458 -123 -669 -215 -44 -20 -41 -15 25
39 25 20 68 58 95 84 28 25 88 80 135 121 47 41 87 78 90 82 19 25 89 67 112
68 15 0 80 -27 145 -61z m-1878 -84 c95 -36 188 -65 207 -65 18 0 64 12 101
26 167 64 241 85 308 89 60 4 64 3 25 -4 -133 -25 -200 -63 -247 -137 -41 -66
-70 -176 -55 -209 20 -45 -7 -30 -152 84 -152 118 -257 191 -277 191 -22 0
-32 -26 -19 -50 17 -32 101 -99 230 -185 156 -103 179 -115 229 -115 58 0 84
13 180 88 47 38 104 80 126 95 73 49 134 32 244 -70 l65 -59 -140 -53 c-141
-53 -315 -117 -574 -210 -118 -43 -254 -87 -324 -105 -67 -17 -90 -10 -100 28
-3 13 -51 127 -107 252 -56 126 -105 241 -109 255 -7 25 -7 25 84 44 113 22
173 42 179 59 5 13 -16 65 -31 76 -4 3 -18 18 -32 34 -21 24 -22 27 -5 18 11
-7 98 -41 194 -77z m834 39 c52 -17 130 -82 152 -125 22 -42 18 -44 -12 -7
-60 71 -140 127 -202 139 -28 5 -30 7 -10 8 14 0 46 -6 72 -15z m-65 -26 c62
-15 92 -36 180 -127 66 -70 73 -75 86 -58 12 15 14 11 20 -39 4 -31 5 -58 4
-60 -2 -1 -21 18 -43 44 -58 70 -147 143 -212 175 -110 54 -185 26 -335 -125
-55 -54 -102 -97 -104 -95 -6 6 25 109 43 142 42 78 118 125 233 144 77 12 76
12 128 -1z m252 -78 c6 -11 8 -20 6 -20 -3 0 -10 9 -16 20 -6 11 -8 20 -6 20
3 0 10 -9 16 -20z m1070 6 c0 -7 -12 -22 -27 -32 -86 -57 -189 -86 -507 -139
-115 -20 -213 -38 -218 -41 -13 -8 -9 -31 7 -37 8 -4 38 -4 67 -1 50 4 49 3
-25 -16 -98 -25 -137 -45 -137 -70 0 -16 7 -20 38 -21 l37 -1 -34 -11 c-39
-12 -83 7 -115 50 -19 26 -19 26 0 40 39 29 213 107 334 150 142 50 224 74
395 113 138 32 185 36 185 16z m56 -35 c6 -30 5 -33 -10 -28 -10 4 -37 -2 -62
-12 -50 -22 -59 -20 -14 4 42 21 70 54 63 74 -4 11 -3 13 5 6 7 -6 15 -26 18
-44z m-1407 35 c-2 -2 -22 -6 -44 -9 -28 -5 -34 -4 -20 3 19 8 73 14 64 6z
m-646 -125 c69 -52 125 -97 123 -99 -3 -2 -28 14 -58 35 -29 21 -78 55 -109
75 -65 45 -148 117 -109 96 14 -7 83 -55 153 -107z m532 86 c-16 -12 -52 -42
-80 -66 -95 -86 -110 -95 -55 -37 57 60 137 126 155 125 6 0 -3 -10 -20 -22z
m171 -22 c27 -13 81 -57 119 -96 65 -68 46 -59 -40 16 -70 62 -154 82 -216 50
-16 -9 -64 -44 -107 -79 -88 -71 -160 -121 -167 -114 -2 2 17 20 43 40 26 19
81 64 122 100 133 116 161 126 246 83z m1334 -65 c-23 -44 -121 -70 -260 -69
l-55 0 73 19 c41 11 108 35 150 53 80 35 112 34 92 -3z m-195 -5 c-16 -8 -37
-14 -45 -14 -8 0 1 7 20 14 46 18 64 17 25 0z m268 -97 c-2 -5 -95 -7 -206 -7
-197 2 -199 2 -92 10 164 13 212 25 237 59 l21 29 23 -42 c12 -23 20 -45 17
-49z m-386 66 c-3 -3 -12 -4 -19 -1 -8 3 -5 6 6 6 11 1 17 -2 13 -5z m-54 -11
c-7 -2 -19 -2 -25 0 -7 3 -2 5 12 5 14 0 19 -2 13 -5z m-50 -10 c-7 -2 -21 -2
-30 0 -10 3 -4 5 12 5 17 0 24 -2 18 -5z m-66 -9 c-3 -3 -12 -4 -19 -1 -8 3
-5 6 6 6 11 1 17 -2 13 -5z m-599 -56 c7 -7 18 -13 25 -14 7 0 22 -2 35 -2 19
-2 22 -6 17 -22 -5 -16 4 -31 37 -65 58 -58 82 -63 187 -37 47 12 109 24 136
26 l50 5 -45 -10 c-25 -6 -86 -23 -137 -40 -50 -16 -101 -29 -113 -29 -14 0
-45 23 -82 60 -32 33 -77 69 -98 80 -26 13 -40 27 -40 40 0 23 10 26 28 8z
m465 5 c-7 -2 -19 -2 -25 0 -7 3 -2 5 12 5 14 0 19 -2 13 -5z m12 -33 c-16 -4
-39 -8 -50 -8 -16 0 -15 2 5 8 14 4 36 8 50 8 22 0 22 -1 -5 -8z m335 -10
c-159 -15 -348 -38 -455 -55 -24 -4 -26 -3 -9 4 17 8 219 50 304 64 14 2 97 4
185 4 l160 0 -185 -17z m-875 -9 c-12 -10 -107 -42 -112 -37 -4 3 94 43 112
45 5 1 5 -2 0 -8z m462 3 c-3 -3 -12 -4 -19 -1 -8 3 -5 6 6 6 11 1 17 -2 13
-5z m-40 -10 c-3 -3 -12 -4 -19 -1 -8 3 -5 6 6 6 11 1 17 -2 13 -5z m741 -1
c-21 -2 -55 -2 -75 0 -21 2 -4 4 37 4 41 0 58 -2 38 -4z m-798 -13 c-8 -5 -22
-9 -30 -9 -10 0 -8 3 5 9 27 12 43 12 25 0z m623 3 c-13 -2 -33 -2 -45 0 -13
2 -3 4 22 4 25 0 35 -2 23 -4z m-125 -10 c-10 -2 -26 -2 -35 0 -10 3 -2 5 17
5 19 0 27 -2 18 -5z m250 -20 c-15 -2 -42 -2 -60 0 -18 2 -6 4 27 4 33 0 48
-2 33 -4z m-2398 -38 c0 -5 -5 -3 -10 5 -5 8 -10 20 -10 25 0 6 5 3 10 -5 5
-8 10 -19 10 -25z m2078 18 c-10 -2 -26 -2 -35 0 -10 3 -2 5 17 5 19 0 27 -2
18 -5z m-90 -10 c-10 -2 -26 -2 -35 0 -10 3 -2 5 17 5 19 0 27 -2 18 -5z m-81
-9 c-3 -3 -12 -4 -19 -1 -8 3 -5 6 6 6 11 1 17 -2 13 -5z m-90 -20 c-3 -3 -12
-4 -19 -1 -8 3 -5 6 6 6 11 1 17 -2 13 -5z m-1779 -69 c11 -27 32 -76 46 -107
14 -32 23 -58 21 -58 -6 0 -24 40 -77 165 -16 38 -25 65 -19 60 5 -6 19 -32
29 -60z m922 55 c-8 -5 -22 -9 -30 -9 -10 0 -8 3 5 9 27 12 43 12 25 0z m721
-30 c-111 -43 -145 -48 -174 -26 -17 13 -14 14 20 10 26 -3 67 5 128 25 131
43 148 37 26 -9z m-851 -14 c0 -2 -7 -7 -16 -10 -8 -3 -12 -2 -9 4 6 10 25 14
25 6z m-120 -46 c-8 -5 -19 -10 -25 -10 -5 0 -3 5 5 10 8 5 20 10 25 10 6 0 3
-5 -5 -10z m-435 -150 c-11 -5 -27 -9 -35 -9 -9 0 -8 4 5 9 11 5 27 9 35 9 9
0 8 -4 -5 -9z m-58 -16 c-3 -3 -12 -4 -19 -1 -8 3 -5 6 6 6 11 1 17 -2 13 -5z"/>
</g>
</svg>
